<svg width="178" height="213" viewBox="0 0 178 213" fill="none" xmlns="http://www.w3.org/2000/svg">
<path d="M15.4783 0C67.8335 0 120.189 0 174.13 0C170.261 19.3636 170.261 19.3636 162.522 38.7273C110.805 40.6443 110.805 40.6443 58.0435 42.6C66.7826 51.2265 66.7826 51.2265 75.6984 60.0273C89.5703 73.9106 102.816 88.0015 115.558 102.915C135.803 125.917 157.033 148.058 178 170.4C176.153 176.05 174.297 181.697 172.438 187.343C171.405 190.488 170.372 193.633 169.309 196.874C166.391 205.255 166.391 205.255 162.522 213C110.167 213 57.8113 213 3.86957 213C7.73913 189.764 7.73913 189.764 15.4783 174.273C48.6791 172.995 81.88 171.717 116.087 170.4C105.672 159.138 105.672 159.138 95.0462 147.648C74.7876 125.705 54.7425 103.582 34.8261 81.3273C28.2979 74.0644 21.768 66.803 15.2364 59.5432C10.1576 53.8955 5.0788 48.2477 0 42.6C1.84698 36.9499 3.70283 31.3027 5.5625 25.6568C6.59504 22.5117 7.62758 19.3667 8.69141 16.1263C11.6087 7.74545 11.6087 7.74545 15.4783 0Z" fill="#1EBBBC"/>
</svg>
