<svg width="980" height="98" viewBox="0 0 980 98" fill="none" xmlns="http://www.w3.org/2000/svg">
<path d="M620.129 0.999268C644.528 0.999268 668.927 0.999268 694.065 0.999268C694.065 32.9498 694.065 64.9004 694.065 97.8191C689.417 97.8191 684.77 97.8191 679.982 97.8191C679.982 84.458 679.982 71.0969 679.982 57.3308C663.716 57.3308 647.45 57.3308 630.692 57.3308C633.015 51.5216 635.339 45.7124 637.733 39.7272C651.094 39.7272 664.455 39.7272 678.221 39.7272C678.221 32.7562 678.221 25.7852 678.221 18.6029C661.956 18.6029 645.69 18.6029 628.931 18.6029C628.931 44.7442 628.931 70.8856 628.931 97.8191C623.703 97.8191 618.475 97.8191 613.088 97.8191C612.913 86.2941 612.786 74.7698 612.701 63.2437C612.666 59.3269 612.618 55.4101 612.557 51.4936C612.471 45.8476 612.431 40.2027 612.4 34.5562C612.364 32.8191 612.328 31.082 612.29 29.2923C612.289 26.8092 612.289 26.8092 612.289 24.2759C612.273 22.8374 612.257 21.3988 612.241 19.9167C613.088 15.0822 613.088 15.0822 620.129 0.999268Z" fill="#4FC8C5"/>
<path d="M345.513 0.999268C368.169 0.999268 390.825 0.999268 414.167 0.999268C408.886 16.8425 408.886 16.8425 407.126 18.6029C403.609 18.8815 400.083 19.0451 396.557 19.1599C393.349 19.2705 393.349 19.2705 390.076 19.3834C387.824 19.4526 385.572 19.5218 383.251 19.5931C380.992 19.6691 378.733 19.7451 376.406 19.8234C370.803 20.0109 365.199 20.188 359.596 20.3632C356.692 26.7534 353.787 33.1435 350.794 39.7272C365.898 39.7272 381.002 39.7272 396.564 39.7272C394.803 50.2894 394.803 50.2894 391.283 59.0912C377.922 59.0912 364.56 59.0912 350.794 59.0912C350.794 66.0622 350.794 73.0333 350.794 80.2155C371.707 80.2155 392.621 80.2155 414.167 80.2155C408.886 96.0588 408.886 96.0588 407.126 97.8191C401.664 97.9754 396.242 98.0219 390.781 97.9911C389.142 97.9886 387.504 97.9861 385.815 97.9835C380.56 97.9736 375.304 97.9515 370.048 97.9292C366.494 97.9203 362.94 97.9123 359.386 97.9051C350.655 97.8856 341.923 97.8552 333.191 97.8191C332.881 88.5578 332.66 79.2995 332.514 70.0341C332.453 66.8962 332.369 63.7587 332.261 60.6221C332.108 56.0584 332.041 51.4995 331.987 46.9337C331.924 45.5773 331.86 44.221 331.795 42.8235C331.783 26.2099 338.07 18.0119 345.513 0.999268Z" fill="#6B6D70"/>
<path d="M907.068 0.999268C930.886 0.999268 954.704 0.999268 979.243 0.999268C979.365 13.091 979.47 25.1805 979.533 37.2723C979.56 41.3839 979.596 45.4955 979.642 49.6069C979.706 55.5236 979.736 61.4397 979.759 67.3566C979.786 69.1889 979.813 71.0212 979.842 72.909C979.842 74.6351 979.842 76.3613 979.843 78.1397C979.854 79.6486 979.866 81.1575 979.878 82.7122C979.243 87.257 979.243 87.257 973.962 97.8191C949.564 97.8191 925.165 97.8191 900.027 97.8191C899.865 86.0098 899.725 74.2044 899.64 62.3949C899.605 58.3806 899.557 54.3665 899.496 50.3526C899.41 44.5711 899.37 38.7909 899.339 33.009C899.303 31.2243 899.267 29.4396 899.229 27.6009C899.229 25.9101 899.228 24.2193 899.228 22.4773C899.212 21.0036 899.196 19.5299 899.18 18.0115C900.027 13.3218 900.027 13.3218 907.068 0.999268ZM915.87 18.6029C915.87 38.9351 915.87 59.2672 915.87 80.2155C932.136 80.2155 948.402 80.2155 965.16 80.2155C965.16 59.8834 965.16 39.5512 965.16 18.6029C948.895 18.6029 932.629 18.6029 915.87 18.6029Z" fill="#4FC8C5"/>
<path d="M488.102 0.999268C490.439 3.56675 490.439 3.56675 492.819 7.20179C494.168 9.2243 494.168 9.2243 495.545 11.2877C496.502 12.7577 497.459 14.2277 498.444 15.7423C500.478 18.7957 502.516 21.8464 504.558 24.8948C505.608 26.4682 506.659 28.0416 507.742 29.6627C516.137 42.0388 525.071 54.0444 533.872 66.1326C534.453 44.6386 535.034 23.1446 535.632 0.999268C541.441 0.999268 547.25 0.999268 553.236 0.999268C553.584 13.3729 553.839 25.7437 554.009 38.1211C554.08 42.3306 554.176 46.5397 554.298 50.748C554.469 56.8008 554.549 62.849 554.611 68.9038C554.684 70.7837 554.756 72.6636 554.831 74.6004C554.839 87.2301 554.839 87.2301 550.254 92.3411C546.481 94.9416 543.622 96.7687 539.153 97.8191C533.397 95.7105 530.656 93.0417 527.16 88.0753C526.258 86.8088 525.355 85.5423 524.425 84.2374C523.476 82.8739 522.527 81.5103 521.549 80.1055C520.56 78.7102 519.572 77.3149 518.553 75.8774C515.431 71.4649 512.329 67.0385 509.227 62.6119C506.26 58.4148 503.288 54.2211 500.316 50.0277C496.234 44.2544 492.17 38.4689 488.102 32.6858C487.521 54.1798 486.94 75.6738 486.342 97.8191C481.114 97.8191 475.885 97.8191 470.499 97.8191C470.194 85.7284 469.97 73.6398 469.822 61.5461C469.76 57.4342 469.676 53.3225 469.569 49.2115C469.419 43.2943 469.35 37.3806 469.295 31.4618C469.232 29.6295 469.168 27.7972 469.103 25.9094C469.096 13.464 469.096 13.464 473.138 7.98151C478.288 3.33925 481.026 0.999268 488.102 0.999268Z" fill="#4FC8C5"/>
<path d="M7.52387 0.999268C31.3416 0.999268 55.1592 0.999268 79.6987 0.999268C77.9383 9.80107 77.9383 9.80107 74.4176 18.6029C50.8904 19.4743 50.8904 19.4743 26.8878 20.3632C30.8635 24.2844 30.8635 24.2844 34.9195 28.2849C41.2302 34.5956 47.2562 41.0007 53.0526 47.7795C62.2625 58.2354 71.9204 68.2997 81.459 78.4552C80.6188 81.0234 79.7745 83.5904 78.9285 86.1568C78.4588 87.5864 77.9891 89.016 77.5051 90.4889C76.178 94.2984 76.178 94.2984 74.4176 97.8191C50.5999 97.8191 26.7822 97.8191 2.24278 97.8191C4.00314 87.257 4.00314 87.257 7.52387 80.2155C22.6278 79.6346 37.7317 79.0537 53.2933 78.4552C48.5551 73.3358 48.5551 73.3358 43.7213 68.113C34.5052 58.1389 25.3861 48.0828 16.3257 37.9669C13.3558 34.6655 10.3852 31.3648 7.41385 28.0648C5.10337 25.4976 2.7929 22.9304 0.482422 20.3632C1.32266 17.795 2.16693 15.228 3.01294 12.6617C3.48267 11.2321 3.9524 9.80245 4.43636 8.32952C5.76351 4.51999 5.76351 4.51999 7.52387 0.999268Z" fill="#6B6D70"/>
<path d="M773.281 0.999268C776.152 4.78958 778.802 8.59058 781.422 12.5516C783.142 15.104 784.864 17.655 786.587 20.2051C787.537 21.6168 788.488 23.0286 789.467 24.4831C795.543 33.4347 801.75 42.2954 807.938 51.1696C812.186 57.2692 816.434 63.3689 820.811 69.6534C821.391 46.9975 821.972 24.3417 822.571 0.999268C827.218 0.999268 831.866 0.999268 836.654 0.999268C836.966 13.3726 837.182 25.7448 837.331 38.1211C837.393 42.3305 837.477 46.5395 837.583 50.748C837.733 56.8006 837.803 62.8497 837.857 68.9038C837.921 70.7837 837.984 72.6636 838.05 74.6004C838.057 87.4284 838.057 87.4284 833.829 92.2173C830.417 94.6753 830.417 94.6753 824.331 97.8191C817.908 95.2472 815.229 92.0695 811.445 86.3493C810.356 84.7245 809.266 83.0998 808.144 81.4258C807.023 79.7193 805.902 78.0129 804.747 76.2547C794.547 60.9111 784.002 45.9357 773.281 30.9254C772.7 53.0003 772.119 75.0753 771.52 97.8191C766.292 97.8191 761.064 97.8191 755.677 97.8191C755.32 85.4461 755.073 73.0743 754.904 60.6973C754.833 56.4878 754.737 52.2787 754.615 48.0705C754.444 42.0176 754.364 35.9694 754.302 29.9146C754.229 28.0347 754.157 26.1549 754.082 24.218C754.074 11.4533 754.074 11.4533 758.782 6.60113C763.541 3.52494 767.528 0.999268 773.281 0.999268Z" fill="#4FC8C5"/>
<path d="M220.549 0C223.502 0.0013926 226.454 0.0510738 229.405 0.139677C230.96 0.152131 232.516 0.164585 234.118 0.177417C239.088 0.226702 244.055 0.337159 249.023 0.449116C252.392 0.493259 255.76 0.53342 259.128 0.569453C267.387 0.666518 275.643 0.818451 283.9 0.999229C282.96 7.89292 281.794 12.2539 278.619 18.6028C269.906 18.6028 261.192 18.6028 252.214 18.6028C252.214 44.7442 252.214 70.8856 252.214 97.8191C246.986 97.8191 241.757 97.8191 236.371 97.8191C236.371 71.6777 236.371 45.5364 236.371 18.6028C226.495 18.6028 216.619 18.6028 206.445 18.6028C210.031 0.671842 210.031 0.671842 220.549 0Z" fill="#6B6D70"/>
<path d="M137.791 0.999268C143.019 0.999268 148.247 0.999268 153.634 0.999268C153.634 32.9498 153.634 64.9004 153.634 97.8191C148.406 97.8191 143.177 97.8191 137.791 97.8191C137.791 65.8686 137.791 33.918 137.791 0.999268Z" fill="#6B6D70"/>
</svg>
