<svg width="1353" height="1354" viewBox="0 0 1353 1354" fill="none" xmlns="http://www.w3.org/2000/svg">
<path d="M1122.3 164.774L1135.4 177.866L1153.76 198.814L1198.32 243.329L1219.3 272.133L1242.89 303.555L1271.73 353.307L1292.7 395.203L1308.43 429.244L1324.16 468.522L1329.41 497.325L1337.27 520.892L1339.89 533.985L1345.14 549.696V568.025L1350.38 573.262L1353 602.066V753.94L1350.38 782.744L1345.14 793.218L1342.51 819.403L1337.27 829.877L1334.65 850.825L1326.78 874.392L1308.43 924.144L1284.84 979.132L1263.86 1015.79L1237.65 1057.69L1221.92 1078.64L1198.32 1107.44L1172.11 1133.62H1166.86L1161.62 1144.1L1153.76 1157.19L1140.65 1165.05L1138.03 1170.28H1132.78V1175.52L1090.84 1212.18L1075.11 1222.65L1048.89 1240.98L1009.56 1264.55L954.51 1293.35L886.347 1319.54L841.779 1332.63L839.157 1327.4H831.292L828.671 1335.25L794.589 1340.49L768.373 1345.72L734.292 1348.34L729.048 1350.96L684.48 1353.58H647.777L637.291 1348.34L653.021 1337.87L684.48 1306.45L700.21 1282.88L713.318 1264.55L731.67 1222.65L739.535 1199.09L742.156 1183.38V1076.02L739.535 1055.07L734.292 1047.21L729.048 1026.27L710.697 989.607L692.345 963.421L673.994 942.473L653.021 921.525L634.669 905.814L621.561 900.577L584.858 882.247L582.236 879.629L563.885 877.01L553.398 869.155L519.317 866.536L511.452 861.299H456.397L451.154 856.062L443.289 837.733L435.424 822.021L419.694 798.455L401.342 767.033L369.883 709.425L359.396 691.096L333.18 646.581L306.963 604.685L296.477 591.592L309.585 596.829L338.423 612.54L369.883 628.251L403.964 641.344L472.127 670.147L514.073 691.096L548.155 704.188L613.696 735.61L647.777 748.703L673.994 761.796L708.075 774.888L750.021 795.836L784.103 808.929L828.671 829.877L849.644 840.351L883.725 853.444L909.942 866.536L944.023 879.629L988.591 900.577L1014.81 911.051L1069.86 937.236L1090.84 947.71L1119.67 958.184L1153.76 973.895L1187.84 979.132H1193.08L1198.32 963.421L1219.3 926.762L1242.89 882.247L1263.86 842.97L1271.73 824.64L1274.35 819.403V801.073L1248.13 759.177L1221.92 709.425L1211.43 691.096L1195.7 664.91L1179.97 636.107L1159 602.066L1114.43 526.129L1088.21 478.996L1077.73 460.666L1051.51 416.151L1035.78 392.585L1041.02 382.111L1062 363.781L1077.73 342.833L1106.57 287.844L1114.43 266.896L1119.67 238.092L1122.3 232.855V164.774Z" fill="#1EBBBC"/>
<path d="M600.555 0H608.423L605.8 10.4723L584.82 39.2713L561.217 83.7787L550.727 117.814L542.86 164.939V206.829L553.35 259.19L561.217 285.371L582.197 327.261L603.178 356.06L626.78 382.24L658.25 408.421L700.21 431.984L736.926 447.693L781.508 458.165L812.978 460.783H878.541L915.256 526.235L941.482 570.743L978.197 633.577L1009.67 688.556L1035.89 733.064L1043.76 746.154L1033.27 743.536L967.707 712.119L881.164 672.848L676.608 578.597L603.178 544.562L540.237 515.763L437.959 468.637L361.907 434.602L322.569 416.276L272.741 392.713L186.198 353.441L152.106 337.733L128.503 379.622L99.6554 439.838L81.2978 484.346L76.0528 505.29V534.089L89.1654 560.27L123.258 617.868L201.933 754.008L230.781 803.752L272.741 877.058L296.344 916.33L293.721 926.802L280.609 939.892L264.874 952.983L236.026 994.872L215.046 1036.76L204.556 1078.65L201.933 1104.83V1154.58L191.443 1149.34L167.841 1123.16L146.861 1096.98L123.258 1065.56L97.0329 1026.29L70.8078 979.164L44.5827 918.948L23.6026 856.114L5.24502 772.335L0 725.21V625.722L7.86753 565.506L31.4701 468.637L60.3178 395.331L91.7879 335.115L120.636 290.607L152.106 248.718L180.953 217.301L199.311 196.356L220.291 175.412L241.271 157.085L275.364 130.904L309.456 107.341L361.907 75.9245L411.734 52.3617L474.675 28.7989L548.105 10.4723L600.555 0Z" fill="#1EBBBC"/>
</svg>
