<svg width="735" height="157" viewBox="0 0 735 157" fill="none" xmlns="http://www.w3.org/2000/svg">
<g clip-path="url(#clip0_2_13)">
<path d="M128 19C139.735 24.2845 147.359 38.3118 151.938 49.8125C159.208 70.4249 158.793 92.323 149.465 112.285C145.732 119.556 141.41 125.884 136 132C135.482 132.612 134.964 133.225 134.43 133.855C121.928 147.582 102.186 155.557 84 157C76.3586 157.334 76.3586 157.334 73 157C72.01 156.01 72.01 156.01 71 155C71.7966 154.381 71.7966 154.381 72.6094 153.75C78.6022 148.851 81.5734 144.28 84 137C84.7125 128.672 84.2413 121.348 80 114C79.0036 112.996 78.0043 111.996 77 111C77 110.34 77 109.68 77 109C76.4341 108.722 75.8682 108.443 75.2852 108.156C73.7779 107.394 72.2848 106.602 70.8086 105.781C66.2049 103.294 62.4787 101.792 57.25 101.25C52.4911 100.523 52.4911 100.523 50.3989 98.2937C49.9605 97.5716 49.522 96.8495 49.0703 96.1055C48.5695 95.2942 48.0687 94.4829 47.5527 93.647C47.0403 92.7735 46.5279 91.9 46 91C45.4721 90.1175 44.9443 89.235 44.4004 88.3257C42.782 85.5857 41.1992 82.828 39.625 80.0625C39.0797 79.1183 38.5345 78.174 37.9727 77.2012C37.4583 76.3008 36.944 75.4004 36.4141 74.4727C35.7172 73.2546 35.7172 73.2546 35.0063 72.012C34 70 34 70 34 68C40.2613 69.9627 46.2328 72.3019 52.2109 75C53.0813 75.3886 53.9516 75.7772 54.8483 76.1775C56.7195 77.0135 58.5899 77.8514 60.4595 78.691C63.4151 80.018 66.3732 81.3395 69.332 82.6594C73.4601 84.5013 77.5873 86.3448 81.7139 88.1899C90.8593 92.2787 100.007 96.3621 109.163 100.427C111.047 101.264 112.93 102.104 114.813 102.945C117.436 104.118 120.061 105.284 122.688 106.449C123.459 106.796 124.231 107.143 125.027 107.501C128.671 109.109 132.02 110.441 136 111C137.375 108.635 138.724 106.261 140.062 103.875C140.452 103.21 140.842 102.545 141.244 101.859C141.608 101.202 141.972 100.545 142.348 99.8672C142.858 98.9717 142.858 98.9717 143.379 98.0581C144.541 94.2082 143.454 90.9584 141.776 87.4172C141.009 86.1376 141.009 86.1376 140.227 84.832C139.654 83.8649 139.081 82.8978 138.49 81.9014C137.875 80.882 137.259 79.8627 136.625 78.8125C136.001 77.7584 135.377 76.7042 134.734 75.6182C132.255 71.4313 129.757 67.2565 127.246 63.0894C125.675 60.4817 124.118 57.8663 122.562 55.25C122.084 54.4712 121.606 53.6923 121.114 52.8899C120.472 51.8074 120.472 51.8074 119.816 50.7031C119.439 50.0808 119.062 49.4585 118.674 48.8174C117.808 46.4829 118.149 45.3068 119 43C120.34 41.0703 120.34 41.0703 121.938 39.125C126.785 32.8167 127.418 26.749 128 19Z" fill="white"/>
<path d="M71.9999 1.00001C71.59 1.62907 71.1801 2.25813 70.7578 2.90626C65.0052 12.0443 62.6599 19.2 64.9999 30C68.69 39.6933 73.5756 45.6538 82.9999 50C87.4018 51.7264 90.6787 52.0327 95.371 51.8399C99.5862 52.1171 101.367 52.3691 104.391 55.3833C106.522 58.6772 108.336 62.0477 110.062 65.5625C110.688 66.7452 111.317 67.9256 111.951 69.1035C113.686 72.379 115.354 75.679 117 79C117.435 79.8661 117.871 80.7322 118.32 81.6245C119.219 83.4134 120.111 85.2061 121 87C116.413 86.3481 112.503 84.5535 108.352 82.5977C107.599 82.2484 106.846 81.8991 106.07 81.5392C103.586 80.3852 101.106 79.2238 98.6249 78.0625C96.8846 77.2528 95.1439 76.4436 93.403 75.635C89.7697 73.9468 86.1376 72.2561 82.5063 70.5635C74.615 66.8871 66.7116 63.2367 58.807 59.5888C57.1482 58.8232 55.4894 58.0574 53.8308 57.2914C41.9188 51.79 29.989 46.3319 17.9999 41C17.7254 41.7025 17.4508 42.4051 17.1679 43.1289C16.3781 45.0705 15.5458 46.9953 14.6757 48.9024C14.0009 50.4048 14.0009 50.4048 13.3124 51.9375C12.626 53.436 12.626 53.436 11.9257 54.9649C10.6208 59.2431 11.2916 62.4418 13.1323 66.491C13.6017 67.3022 14.071 68.1134 14.5546 68.9492C15.3461 70.3326 15.3461 70.3326 16.1535 71.7439C16.7216 72.7153 17.2897 73.6867 17.8749 74.6875C18.4527 75.6918 19.0304 76.696 19.6257 77.7307C21.4086 80.8255 23.2037 83.9129 24.9999 87C26.1036 88.911 27.2065 90.8224 28.3085 92.7344C30.8628 97.1619 33.428 101.583 35.9999 106C35.3894 106.801 35.3894 106.801 34.7665 107.618C34.23 108.327 33.6934 109.035 33.1406 109.766C32.6098 110.465 32.079 111.164 31.5322 111.884C26.511 118.819 25.0686 125.563 23.9999 134C10.8365 124.478 3.68127 107.556 0.624947 92C-2.22508 69.9717 2.07793 48.6302 15.7499 30.8125C16.8234 29.5333 17.9068 28.2624 18.9999 27C19.6084 26.1956 20.2168 25.3913 20.8437 24.5625C32.5697 10.6272 53.7306 -0.0539919 71.9999 1.00001Z" fill="#4FC8C5"/>
<path d="M531 51C544.86 51 558.72 51 573 51C573 69.15 573 87.3 573 106C570.36 106 567.72 106 565 106C565 98.41 565 90.82 565 83C555.76 83 546.52 83 537 83C538.32 79.7 539.64 76.4 541 73C548.59 73 556.18 73 564 73C564 69.04 564 65.08 564 61C554.76 61 545.52 61 536 61C536 75.85 536 90.7 536 106C533.03 106 530.06 106 527 106C526.901 99.453 526.828 92.9065 526.78 86.3589C526.76 84.1339 526.733 81.9089 526.698 79.6841C526.65 76.4768 526.627 73.2701 526.609 70.0625C526.589 69.0757 526.568 68.0889 526.547 67.0723C526.546 65.6617 526.546 65.6617 526.546 64.2227C526.537 63.4055 526.528 62.5883 526.519 61.7463C527 59 527 59 531 51Z" fill="#4FC8C5"/>
<path d="M375 51C387.87 51 400.74 51 414 51C411 60 411 60 410 61C408.002 61.1583 405.999 61.2512 403.996 61.3164C402.174 61.3792 402.174 61.3792 400.314 61.4434C399.035 61.4827 397.756 61.522 396.437 61.5625C395.154 61.6057 393.871 61.6489 392.549 61.6934C389.366 61.7998 386.183 61.9005 383 62C381.35 65.63 379.7 69.26 378 73C386.58 73 395.16 73 404 73C403 79 403 79 401 84C393.41 84 385.82 84 378 84C378 87.96 378 91.92 378 96C389.88 96 401.76 96 414 96C411 105 411 105 410 106C406.897 106.089 403.817 106.115 400.715 106.098C399.784 106.096 398.853 106.095 397.894 106.093C394.909 106.088 391.923 106.075 388.937 106.062C386.919 106.057 384.9 106.053 382.881 106.049C377.921 106.038 372.96 106.021 368 106C367.824 100.739 367.699 95.4797 367.615 90.2163C367.581 88.4338 367.533 86.6514 367.472 84.8696C367.385 82.2772 367.347 79.6874 367.316 77.0938C367.28 76.3233 367.244 75.5528 367.207 74.7589C367.201 65.3213 370.772 60.6643 375 51Z" fill="white"/>
<path d="M694 51C707.53 51 721.06 51 735 51C735.069 57.8689 735.129 64.7365 735.165 71.6055C735.18 73.9411 735.2 76.2767 735.226 78.6123C735.263 81.9734 735.28 85.3341 735.293 88.6953C735.309 89.7362 735.324 90.777 735.34 91.8494C735.34 92.83 735.34 93.8105 735.341 94.8208C735.347 95.678 735.354 96.5351 735.361 97.4182C735 100 735 100 732 106C718.14 106 704.28 106 690 106C689.908 99.2915 689.828 92.5853 689.78 85.8767C689.76 83.5964 689.733 81.3161 689.698 79.0359C689.65 75.7517 689.627 72.4681 689.609 69.1836C689.589 68.1698 689.568 67.156 689.547 66.1114C689.547 65.151 689.546 64.1905 689.546 63.2009C689.537 62.3638 689.528 61.5266 689.519 60.664C690 58 690 58 694 51ZM699 61C699 72.55 699 84.1 699 96C708.24 96 717.48 96 727 96C727 84.45 727 72.9 727 61C717.76 61 708.52 61 699 61Z" fill="#4FC8C5"/>
<path d="M456 51C457.328 52.4585 457.328 52.4585 458.68 54.5234C459.446 55.6724 459.446 55.6724 460.228 56.8445C460.771 57.6796 461.315 58.5146 461.875 59.375C463.03 61.1095 464.188 62.8425 465.348 64.5742C465.945 65.468 466.542 66.3618 467.157 67.2827C471.926 74.3131 477.001 81.1331 482 88C482.33 75.79 482.66 63.58 483 51C486.3 51 489.6 51 493 51C493.198 58.029 493.343 65.0565 493.439 72.0876C493.48 74.4789 493.534 76.8699 493.603 79.2605C493.701 82.6989 493.746 86.1347 493.781 89.5742C493.822 90.6421 493.864 91.71 493.906 92.8102C493.911 99.9847 493.911 99.9847 491.306 102.888C489.163 104.365 487.538 105.403 485 106C481.73 104.802 480.173 103.286 478.187 100.465C477.675 99.7454 477.162 99.0259 476.633 98.2847C476.094 97.5101 475.555 96.7355 475 95.9375C474.438 95.1449 473.877 94.3523 473.298 93.5356C471.524 91.0291 469.762 88.5146 468 86C466.315 83.6158 464.626 81.2335 462.938 78.8513C460.619 75.5717 458.311 72.2852 456 69C455.67 81.21 455.34 93.42 455 106C452.03 106 449.06 106 446 106C445.827 99.1316 445.7 92.2646 445.615 85.3945C445.58 83.0587 445.532 80.723 445.472 78.3877C445.387 75.0263 445.347 71.667 445.316 68.3047C445.28 67.2638 445.244 66.223 445.207 65.1506C445.203 58.0808 445.203 58.0808 447.499 54.9664C450.425 52.3293 451.98 51 456 51Z" fill="#4FC8C5"/>
<path d="M183 51C196.53 51 210.06 51 224 51C223 56 223 56 221 61C207.635 61.495 207.635 61.495 194 62C196.258 64.2275 196.258 64.2275 198.562 66.5C202.147 70.0849 205.571 73.7234 208.863 77.5742C214.095 83.5138 219.581 89.231 225 95C224.523 96.4589 224.043 97.9171 223.562 99.375C223.296 100.187 223.029 100.999 222.754 101.836C222 104 222 104 221 106C207.47 106 193.94 106 180 106C181 100 181 100 183 96C191.58 95.67 200.16 95.34 209 95C206.308 92.0919 206.308 92.0919 203.562 89.125C198.327 83.459 193.147 77.7465 188 72C186.313 70.1246 184.625 68.2496 182.938 66.375C181.625 64.9167 180.312 63.4583 179 62C179.477 60.5411 179.957 59.0829 180.438 57.625C180.704 56.8129 180.971 56.0008 181.246 55.1641C182 53 182 53 183 51Z" fill="white"/>
<path d="M618 51C619.631 53.1531 621.136 55.3124 622.625 57.5625C623.602 59.0124 624.58 60.4616 625.559 61.9102C626.099 62.7121 626.638 63.5141 627.195 64.3403C630.646 69.4255 634.172 74.4589 637.687 79.5C640.101 82.965 642.514 86.43 645 90C645.33 77.13 645.66 64.26 646 51C648.64 51 651.28 51 654 51C654.178 58.0288 654.3 65.0571 654.384 72.0876C654.42 74.4788 654.467 76.8698 654.528 79.2605C654.613 82.6988 654.653 86.1351 654.684 89.5742C654.72 90.6421 654.756 91.71 654.793 92.8102C654.797 100.097 654.797 100.097 652.395 102.818C650.457 104.214 650.457 104.214 647 106C643.351 104.539 641.829 102.734 639.68 99.4844C639.061 98.5614 638.442 97.6384 637.805 96.6875C637.168 95.7181 636.531 94.7487 635.875 93.75C630.08 85.0338 624.091 76.5268 618 68C617.67 80.54 617.34 93.08 617 106C614.03 106 611.06 106 608 106C607.797 98.9713 607.657 91.9433 607.561 84.9124C607.52 82.5211 607.466 80.1301 607.396 77.7395C607.299 74.3011 607.254 70.8653 607.219 67.4258C607.177 66.3579 607.136 65.29 607.094 64.1898C607.089 56.9386 607.089 56.9386 609.764 54.1822C612.467 52.4347 614.732 51 618 51Z" fill="#4FC8C5"/>
<path d="M304.012 50.4324C305.689 50.4332 307.367 50.4614 309.043 50.5117C309.927 50.5188 310.81 50.5259 311.721 50.5332C314.544 50.5612 317.365 50.6239 320.188 50.6875C322.101 50.7126 324.014 50.7354 325.928 50.7559C330.619 50.811 335.309 50.8973 340 51C339.466 54.9161 338.803 57.3934 337 61C332.05 61 327.1 61 322 61C322 75.85 322 90.7 322 106C319.03 106 316.06 106 313 106C313 91.15 313 76.3 313 61C307.39 61 301.78 61 296 61C298.037 50.814 298.037 50.814 304.012 50.4324Z" fill="white"/>
<path d="M257 51C259.97 51 262.94 51 266 51C266 69.15 266 87.3 266 106C263.03 106 260.06 106 257 106C257 87.85 257 69.7 257 51Z" fill="white"/>
</g>
<defs>
<clipPath id="clip0_2_13">
<rect width="735" height="157" fill="white"/>
</clipPath>
</defs>
</svg>
